# Blender 3.5.1
# www.blender.org
mtllib cheese.mtl
o cheese
v 1.115945 0.000000 -0.582232
v 1.115945 0.084000 -0.582232
v 1.115945 0.000000 0.428049
v 1.115945 0.084000 0.428049
v 1.115945 0.000000 0.717501
v 1.115945 0.084000 0.717501
v 1.115945 0.000000 0.992768
v 1.115945 0.084000 0.992768
v 0.631034 0.084000 -0.488005
v -0.459055 0.084000 -0.582232
v 0.572486 0.084000 -0.458164
v 0.695945 0.084000 -0.498295
v 0.179975 0.000000 0.490658
v 0.179975 0.084000 0.490658
v 0.157610 0.084000 0.534590
v 0.157610 0.000000 0.534590
v 1.013486 0.084000 0.453803
v 0.760856 0.084000 -0.088459
v 0.967013 0.084000 0.486332
v -0.459055 0.000000 -0.582232
v -0.459055 0.000000 -0.299308
v -0.459055 0.084000 -0.299308
v 0.214835 0.000000 0.455798
v 0.214835 0.084000 0.455798
v 0.906008 0.084000 -0.288232
v 0.258767 0.000000 0.433433
v 0.258767 0.084000 0.433433
v 0.307445 0.000000 0.425726
v 0.307445 0.084000 0.425726
v 0.895718 0.084000 -0.353143
v 0.865877 0.084000 -0.411691
v -0.459055 0.000000 0.686694
v -0.459055 0.084000 0.686694
v -0.459055 0.000000 0.100844
v -0.459055 0.084000 0.100844
v 0.356123 0.000000 0.433433
v 0.356123 0.084000 0.433433
v 1.013486 0.084000 0.691733
v 1.072034 0.084000 0.712628
v 0.967013 0.084000 0.659204
v 0.400055 0.084000 0.710738
v 0.064958 0.084000 0.046508
v -0.331144 0.084000 0.686966
v 0.088205 0.084000 0.069755
v 0.400055 0.000000 0.455798
v 0.400055 0.084000 0.455798
v 0.434915 0.000000 0.490658
v 0.434915 0.084000 0.490658
v -0.272596 0.084000 0.713825
v 0.149882 0.084000 0.583268
v 0.819404 0.084000 -0.118300
v 0.457280 0.084000 0.534590
v 0.937172 0.084000 0.527324
v 0.926903 0.084000 0.572768
v 0.465008 0.084000 0.583268
v 0.457280 0.084000 0.631946
v 0.434915 0.084000 0.675878
v 0.937172 0.084000 0.618212
v 0.356123 0.084000 0.733103
v 0.457280 0.000000 0.534590
v 0.465008 0.000000 0.583268
v 0.258767 0.084000 0.733103
v 0.149882 0.084000 0.992768
v 0.307445 0.084000 0.740831
v 0.760856 0.084000 -0.488005
v 0.819404 0.084000 -0.458164
v 0.117479 0.084000 -0.115150
v 0.088205 0.084000 -0.100219
v 0.895718 0.084000 -0.223321
v 0.865877 0.084000 -0.164773
v -0.226123 0.084000 0.755636
v 0.050027 0.084000 0.017234
v -0.352123 0.084000 0.024227
v 0.214835 0.084000 0.710738
v 0.179975 0.084000 0.675878
v -0.186013 0.084000 0.866768
v 1.072034 0.000000 0.712628
v 0.149945 0.084000 -0.120295
v 0.695945 0.084000 -0.078169
v 1.072034 0.084000 0.432908
v 1.013486 0.000000 0.691733
v 0.967013 0.000000 0.659204
v -0.457144 0.084000 0.100541
v -0.396055 0.084000 0.677726
v 0.182411 0.084000 -0.115150
v 0.211685 0.084000 -0.100219
v 0.485903 0.084000 -0.288232
v 0.526013 0.084000 -0.164773
v 0.496172 0.084000 -0.223321
v 0.249863 0.084000 -0.047698
v 0.631034 0.084000 -0.088459
v 0.572486 0.084000 -0.118300
v 0.249863 0.084000 0.017234
v 0.234932 0.084000 0.046508
v 0.211685 0.084000 0.069755
v 0.937172 0.000000 0.618212
v 0.117479 0.084000 0.084686
v -0.457144 0.084000 -0.299005
v 0.149945 0.084000 0.089810
v 0.064958 0.000000 -0.076972
v -0.322282 0.000000 -0.164143
v 0.088205 0.000000 -0.100219
v -0.196282 0.084000 0.808346
v 0.157610 0.084000 0.631946
v 0.234932 0.084000 -0.076972
v 0.255008 0.084000 -0.015232
v -0.398596 0.084000 -0.269164
v -0.352123 0.084000 -0.222691
v -0.322282 0.084000 -0.164143
v -0.312013 0.084000 -0.099232
v 0.050027 0.084000 -0.047698
v 0.044882 0.084000 -0.015232
v -0.322282 0.084000 -0.034321
v 0.064958 0.084000 -0.076972
v 0.926903 0.000000 0.572768
v 0.937172 0.000000 0.527324
v 0.967013 0.000000 0.486332
v 1.013486 0.000000 0.453803
v 1.072034 0.000000 0.432908
v 0.496172 0.084000 -0.353143
v 0.182411 0.084000 0.084686
v 0.526013 0.084000 -0.411691
v -0.226123 0.084000 0.977900
v -0.196282 0.084000 0.925190
v 0.234932 0.000000 0.046508
v 0.211685 0.000000 0.069755
v 0.249863 0.000000 0.017234
v -0.398596 0.084000 0.070700
v -0.242649 0.084000 0.992768
v 0.182411 0.000000 -0.115150
v 0.149945 0.000000 -0.120295
v 0.496172 0.000000 -0.353143
v 0.117479 0.000000 -0.115150
v -0.457144 0.000000 -0.299005
v -0.352123 0.000000 -0.222691
v -0.398596 0.000000 -0.269164
v 0.760856 0.000000 -0.088459
v 0.819404 0.000000 -0.118300
v 0.926903 0.000000 0.089810
v 0.117479 0.000000 0.084686
v 0.149945 0.000000 0.089810
v 0.064958 0.000000 0.046508
v -0.352123 0.000000 0.024227
v 0.050027 0.000000 0.017234
v 0.088205 0.000000 0.069755
v 0.631034 0.000000 -0.088459
v 0.572486 0.000000 -0.118300
v 0.526013 0.000000 -0.164773
v 0.255008 0.000000 -0.015232
v 0.044882 0.000000 -0.015232
v -0.322282 0.000000 -0.034321
v -0.312013 0.000000 -0.099232
v 0.050027 0.000000 -0.047698
v 0.496172 0.000000 -0.223321
v 0.249863 0.000000 -0.047698
v -0.242649 0.000000 0.992768
v -0.226123 0.000000 0.977900
v 0.149882 0.000000 0.992768
v 0.526013 0.000000 -0.411691
v 0.234932 0.000000 -0.076972
v 0.211685 0.000000 -0.100219
v 0.157610 0.000000 0.631946
v 0.179975 0.000000 0.675878
v -0.196282 0.000000 0.808346
v 0.258767 0.000000 0.733103
v 0.214835 0.000000 0.710738
v -0.186013 0.000000 0.866768
v -0.398596 0.000000 0.070700
v 0.149882 0.000000 0.583268
v -0.272596 0.000000 0.713825
v -0.457144 0.000000 0.100541
v -0.196282 0.000000 0.925190
v 0.457280 0.000000 0.631946
v -0.331144 0.000000 0.686966
v -0.396055 0.000000 0.677726
v 0.356123 0.000000 0.733103
v -0.226123 0.000000 0.755636
v 0.865877 0.000000 -0.164773
v 0.572486 0.000000 -0.458164
v 0.631034 0.000000 -0.488005
v 0.695945 0.000000 -0.078169
v 0.182411 0.000000 0.084686
v 0.865877 0.000000 -0.411691
v 0.819404 0.000000 -0.458164
v 0.895718 0.000000 -0.353143
v 0.760856 0.000000 -0.488005
v 0.695945 0.000000 -0.498295
v 0.895718 0.000000 -0.223321
v 0.906008 0.000000 -0.288232
v 0.434915 0.000000 0.675878
v 0.485903 0.000000 -0.288232
v 0.400055 0.000000 0.710738
v 0.307445 0.000000 0.740831
vn 1.0000 -0.0000 -0.0000
vn -0.0000 1.0000 -0.0000
vn 0.8912 -0.0000 0.4537
vn -1.0000 -0.0000 -0.0000
vn 0.7071 -0.0000 0.7071
vn 0.4537 -0.0000 0.8912
vn 0.1564 -0.0000 0.9877
vn -0.1564 -0.0000 0.9877
vn -0.4537 -0.0000 0.8912
vn -0.7071 -0.0000 0.7071
vn -0.8912 -0.0000 0.4537
vn -0.9876 -0.0000 0.1568
vn -0.9876 -0.0000 -0.1568
vn 0.1103 -0.0000 -0.9939
vn 0.3361 -0.0000 -0.9418
vn 0.5734 -0.0000 -0.8192
vn 0.8085 -0.0000 -0.5885
vn -0.0000 -1.0000 -0.0000
vn 0.9754 -0.0000 -0.2204
vn 0.9754 -0.0000 0.2204
vn 0.8085 -0.0000 0.5885
vn 0.5734 -0.0000 0.8192
vn 0.3361 -0.0000 0.9418
vn 0.1100 -0.0000 0.9939
vn -0.8908 -0.0000 0.4544
vn -0.9877 -0.0000 -0.1563
vn -0.8909 -0.0000 -0.4541
vn -0.7071 -0.0000 -0.7071
vn -0.4541 -0.0000 -0.8909
vn -0.1566 -0.0000 -0.9877
vn -0.1566 -0.0000 0.9877
vn -0.4541 -0.0000 0.8909
vn -0.0000 -0.0000 1.0000
vn -0.8909 -0.0000 0.4541
vn -0.9877 -0.0000 0.1563
vn -0.9877 -0.0000 0.1565
vn -0.6688 -0.0000 -0.7434
vn -0.9877 -0.0000 -0.1565
vn 0.1409 -0.0000 0.9900
vn -0.1409 -0.0000 0.9900
vn -0.4170 -0.0000 0.9089
vn -0.0000 -0.0000 -1.0000
vn -0.6688 -0.0000 0.7434
vn -0.8702 -0.0000 0.4927
vn -0.9849 -0.0000 0.1731
vn -0.9849 -0.0000 -0.1731
vn -0.8702 -0.0000 -0.4927
vn 0.1559 -0.0000 -0.9878
vn 0.4544 -0.0000 -0.8908
vn 0.7071 -0.0000 -0.7071
vn 0.8908 -0.0000 -0.4544
vn 0.9877 -0.0000 -0.1565
vn 0.9877 -0.0000 0.1565
vn 0.8908 -0.0000 0.4544
vn 0.4544 -0.0000 0.8908
vn 0.1565 -0.0000 0.9877
vn -0.1565 -0.0000 0.9877
vn -0.4544 -0.0000 0.8908
vn -0.8908 -0.0000 -0.4544
vn -0.4544 -0.0000 -0.8908
vn -0.1559 -0.0000 -0.9878
vn 0.1566 -0.0000 -0.9877
vn 0.4541 -0.0000 -0.8909
vn 0.8909 -0.0000 -0.4541
vn 0.9877 -0.0000 -0.1563
vn 0.9877 -0.0000 0.1563
vn 0.8909 -0.0000 0.4541
vn 0.4541 -0.0000 0.8909
vn 0.1566 -0.0000 0.9877
vn -0.9877 -0.0000 0.1566
vn -0.9877 -0.0000 -0.1566
vn 0.9876 -0.0000 -0.1568
vn 0.9876 -0.0000 0.1568
vn 0.1568 -0.0000 -0.9876
vn 0.4537 -0.0000 -0.8912
vn 0.8912 -0.0000 -0.4537
vn -0.8912 -0.0000 -0.4537
vn -0.4537 -0.0000 -0.8912
vn -0.1568 -0.0000 -0.9876
s 0
f 1//1 2//1 3//1
f 2//1 4//1 3//1
f 5//1 6//1 7//1
f 8//1 7//1 6//1
f 9//2 10//2 11//2
f 12//2 10//2 9//2
f 13//3 14//3 15//3
f 13//3 15//3 16//3
f 17//2 18//2 19//2
f 10//4 20//4 21//4
f 10//4 21//4 22//4
f 23//5 24//5 14//5
f 23//5 14//5 13//5
f 2//2 25//2 4//2
f 26//6 27//6 24//6
f 26//6 24//6 23//6
f 27//7 26//7 28//7
f 27//7 28//7 29//7
f 30//2 2//2 31//2
f 32//4 33//4 34//4
f 35//4 34//4 33//4
f 36//8 37//8 29//8
f 36//8 29//8 28//8
f 38//2 8//2 39//2
f 40//2 41//2 38//2
f 6//2 39//2 8//2
f 42//2 43//2 44//2
f 45//9 46//9 37//9
f 45//9 37//9 36//9
f 46//10 45//10 47//10
f 46//10 47//10 48//10
f 15//2 49//2 50//2
f 18//2 17//2 51//2
f 48//2 52//2 53//2
f 19//2 48//2 53//2
f 54//2 53//2 52//2
f 52//2 55//2 54//2
f 55//2 56//2 54//2
f 56//2 57//2 58//2
f 40//2 58//2 57//2
f 40//2 57//2 41//2
f 59//2 8//2 41//2
f 48//11 47//11 60//11
f 48//11 60//11 52//11
f 52//12 60//12 61//12
f 52//12 61//12 55//12
f 8//2 38//2 41//2
f 62//2 63//2 64//2
f 8//2 59//2 63//2
f 65//2 2//2 12//2
f 66//2 2//2 65//2
f 66//2 31//2 2//2
f 2//2 10//2 12//2
f 55//13 61//13 56//13
f 67//2 10//2 68//2
f 2//2 30//2 25//2
f 69//2 4//2 25//2
f 70//2 51//2 4//2
f 69//2 70//2 4//2
f 71//2 50//2 49//2
f 72//2 73//2 42//2
f 74//2 75//2 76//2
f 5//14 77//14 39//14
f 5//14 39//14 6//14
f 78//2 10//2 67//2
f 18//2 79//2 19//2
f 80//2 51//2 17//2
f 39//15 77//15 81//15
f 39//15 81//15 38//15
f 38//16 81//16 82//16
f 38//16 82//16 40//16
f 83//2 35//2 84//2
f 85//2 86//2 87//2
f 88//2 89//2 90//2
f 91//2 92//2 93//2
f 19//2 91//2 93//2
f 19//2 93//2 94//2
f 95//2 37//2 94//2
f 96//17 58//17 40//17
f 96//17 40//17 82//17
f 44//2 49//2 97//2
f 22//2 98//2 10//2
f 99//2 97//2 24//2
f 100//18 101//18 102//18
f 103//2 76//2 75//2
f 14//2 24//2 97//2
f 104//2 103//2 75//2
f 62//2 74//2 63//2
f 89//2 87//2 86//2
f 105//2 89//2 86//2
f 90//2 106//2 88//2
f 85//2 87//2 78//2
f 50//2 71//2 104//2
f 107//2 10//2 98//2
f 108//2 10//2 107//2
f 109//2 110//2 111//2
f 79//2 91//2 19//2
f 80//2 4//2 51//2
f 112//2 111//2 110//2
f 113//2 112//2 110//2
f 73//2 72//2 113//2
f 84//2 43//2 83//2
f 111//2 114//2 109//2
f 114//2 68//2 109//2
f 108//2 109//2 68//2
f 10//2 108//2 68//2
f 58//19 96//19 115//19
f 58//19 115//19 54//19
f 64//2 63//2 59//2
f 116//20 53//20 54//20
f 116//20 54//20 115//20
f 88//2 106//2 92//2
f 106//2 93//2 92//2
f 117//21 19//21 53//21
f 117//21 53//21 116//21
f 105//2 90//2 89//2
f 118//22 17//22 19//22
f 118//22 19//22 117//22
f 49//2 44//2 43//2
f 10//2 78//2 87//2
f 119//23 80//23 17//23
f 119//23 17//23 118//23
f 24//2 27//2 99//2
f 14//2 49//2 15//2
f 87//2 120//2 10//2
f 80//24 119//24 3//24
f 80//24 3//24 4//24
f 121//2 99//2 27//2
f 122//2 10//2 120//2
f 11//2 10//2 122//2
f 123//2 63//2 124//2
f 125//18 36//18 126//18
f 127//18 45//18 125//18
f 42//2 73//2 43//2
f 103//2 104//2 71//2
f 73//2 128//2 43//2
f 128//2 83//2 43//2
f 33//2 84//2 35//2
f 112//2 113//2 72//2
f 63//2 74//2 76//2
f 63//2 76//2 124//2
f 129//2 63//2 123//2
f 130//18 131//18 132//18
f 133//18 20//18 131//18
f 20//18 132//18 131//18
f 20//18 134//18 21//18
f 135//18 136//18 20//18
f 137//18 138//18 139//18
f 140//18 141//18 23//18
f 142//18 143//18 144//18
f 145//18 143//18 142//18
f 136//18 134//18 20//18
f 146//18 45//18 147//18
f 148//18 147//18 149//18
f 127//18 149//18 147//18
f 133//18 102//18 20//18
f 150//18 144//18 151//18
f 143//18 151//18 144//18
f 152//18 101//18 153//18
f 153//18 150//18 152//18
f 100//18 153//18 101//18
f 135//18 102//18 101//18
f 20//18 102//18 135//18
f 154//18 148//18 155//18
f 156//18 157//18 158//18
f 20//18 159//18 132//18
f 160//18 161//18 154//18
f 162//18 163//18 164//18
f 165//18 158//18 166//18
f 105//25 160//25 155//25
f 105//25 155//25 90//25
f 158//18 167//18 166//18
f 113//26 152//26 151//26
f 163//18 166//18 167//18
f 113//27 151//27 143//27
f 113//27 143//27 73//27
f 73//28 143//28 168//28
f 73//28 168//28 128//28
f 16//18 169//18 170//18
f 128//29 168//29 171//29
f 128//29 171//29 83//29
f 83//30 171//30 34//30
f 83//30 34//30 35//30
f 158//18 157//18 172//18
f 115//18 96//18 173//18
f 134//31 98//31 22//31
f 134//31 22//31 21//31
f 171//18 168//18 174//18
f 174//18 175//18 171//18
f 34//18 171//18 175//18
f 34//18 175//18 32//18
f 136//32 107//32 98//32
f 136//32 98//32 134//32
f 158//18 176//18 7//18
f 164//18 177//18 162//18
f 169//18 162//18 177//18
f 170//18 168//18 16//18
f 172//18 167//18 158//18
f 107//10 136//10 135//10
f 107//10 135//10 108//10
f 63//33 158//33 7//33
f 63//33 7//33 8//33
f 108//34 135//34 101//34
f 108//34 101//34 109//34
f 58//2 54//2 56//2
f 109//35 101//35 152//35
f 109//35 152//35 110//35
f 129//33 156//33 158//33
f 110//26 152//26 113//26
f 63//33 129//33 158//33
f 29//2 37//2 95//2
f 37//2 46//2 94//2
f 19//2 94//2 46//2
f 48//2 19//2 46//2
f 95//2 121//2 29//2
f 27//2 29//2 121//2
f 97//2 49//2 14//2
f 90//36 155//36 149//36
f 90//36 149//36 106//36
f 123//37 157//37 156//37
f 123//37 156//37 129//37
f 23//18 13//18 143//18
f 106//38 149//38 127//38
f 106//38 127//38 93//38
f 33//39 32//39 175//39
f 33//39 175//39 84//39
f 143//18 145//18 23//18
f 174//40 43//40 84//40
f 174//40 84//40 175//40
f 170//41 49//41 43//41
f 170//41 43//41 174//41
f 20//42 2//42 1//42
f 177//43 71//43 49//43
f 177//43 49//43 170//43
f 2//42 20//42 10//42
f 164//44 103//44 71//44
f 164//44 71//44 177//44
f 103//45 164//45 167//45
f 103//45 167//45 76//45
f 76//46 167//46 172//46
f 76//46 172//46 124//46
f 47//18 139//18 60//18
f 124//47 172//47 157//47
f 124//47 157//47 123//47
f 141//48 140//48 97//48
f 141//48 97//48 99//48
f 138//18 178//18 139//18
f 97//49 140//49 145//49
f 97//49 145//49 44//49
f 179//18 20//18 180//18
f 47//18 45//18 181//18
f 36//18 125//18 45//18
f 28//18 126//18 36//18
f 141//18 182//18 26//18
f 28//18 26//18 182//18
f 142//50 42//50 44//50
f 142//50 44//50 145//50
f 144//51 72//51 42//51
f 144//51 42//51 142//51
f 5//18 7//18 77//18
f 72//52 144//52 150//52
f 72//52 150//52 112//52
f 183//18 184//18 1//18
f 185//18 183//18 1//18
f 153//53 111//53 112//53
f 153//53 112//53 150//53
f 100//54 114//54 111//54
f 100//54 111//54 153//54
f 184//18 186//18 1//18
f 186//18 187//18 1//18
f 20//18 1//18 187//18
f 187//18 180//18 20//18
f 102//5 68//5 114//5
f 102//5 114//5 100//5
f 3//18 139//18 188//18
f 188//18 189//18 3//18
f 1//18 3//18 189//18
f 189//18 185//18 1//18
f 139//18 47//18 137//18
f 178//18 188//18 139//18
f 133//55 67//55 68//55
f 133//55 68//55 102//55
f 190//18 173//18 96//18
f 67//56 133//56 131//56
f 67//56 131//56 78//56
f 20//18 179//18 159//18
f 155//18 160//18 154//18
f 181//18 45//18 146//18
f 191//18 154//18 161//18
f 182//18 126//18 28//18
f 155//18 148//18 149//18
f 161//18 130//18 191//18
f 132//18 191//18 130//18
f 130//57 85//57 78//57
f 130//57 78//57 131//57
f 118//18 139//18 119//18
f 161//58 86//58 85//58
f 161//58 85//58 130//58
f 139//18 3//18 119//18
f 86//10 161//10 160//10
f 86//10 160//10 105//10
f 7//18 192//18 81//18
f 81//18 77//18 7//18
f 93//59 127//59 125//59
f 93//59 125//59 94//59
f 94//28 125//28 126//28
f 94//28 126//28 95//28
f 139//18 118//18 117//18
f 116//18 115//18 60//18
f 96//18 82//18 190//18
f 192//18 190//18 82//18
f 173//18 61//18 115//18
f 61//18 60//18 115//18
f 117//18 116//18 60//18
f 139//18 117//18 60//18
f 127//18 147//18 45//18
f 181//18 137//18 47//18
f 95//60 126//60 182//60
f 95//60 182//60 121//60
f 121//61 182//61 141//61
f 121//61 141//61 99//61
f 193//18 158//18 165//18
f 193//18 176//18 158//18
f 192//18 7//18 176//18
f 82//18 81//18 192//18
f 91//62 79//62 181//62
f 177//18 170//18 169//18
f 167//18 164//18 163//18
f 16//18 168//18 13//18
f 145//18 140//18 23//18
f 26//18 23//18 141//18
f 181//30 79//30 137//30
f 18//30 137//30 79//30
f 146//62 91//62 181//62
f 151//18 152//18 150//18
f 147//63 92//63 91//63
f 147//63 91//63 146//63
f 143//18 13//18 168//18
f 174//18 168//18 170//18
f 148//50 88//50 92//50
f 148//50 92//50 147//50
f 154//64 89//64 88//64
f 154//64 88//64 148//64
f 89//65 154//65 191//65
f 89//65 191//65 87//65
f 132//66 120//66 87//66
f 132//66 87//66 191//66
f 159//67 122//67 120//67
f 159//67 120//67 132//67
f 159//5 11//5 122//5
f 138//28 51//28 178//28
f 137//29 18//29 51//29
f 137//29 51//29 138//29
f 179//5 11//5 159//5
f 180//68 9//68 11//68
f 180//68 11//68 179//68
f 9//69 180//69 187//69
f 9//69 187//69 12//69
f 186//31 65//31 12//31
f 186//31 12//31 187//31
f 184//32 66//32 65//32
f 184//32 65//32 186//32
f 183//10 31//10 184//10
f 66//10 184//10 31//10
f 31//34 183//34 185//34
f 31//34 185//34 30//34
f 30//70 185//70 189//70
f 30//70 189//70 25//70
f 25//71 189//71 188//71
f 25//71 188//71 69//71
f 69//27 188//27 178//27
f 69//27 178//27 70//27
f 70//28 178//28 51//28
f 50//72 162//72 169//72
f 16//73 15//73 50//73
f 16//73 50//73 169//73
f 193//74 165//74 62//74
f 193//74 62//74 64//74
f 62//75 165//75 166//75
f 62//75 166//75 74//75
f 163//50 75//50 74//50
f 163//50 74//50 166//50
f 162//76 104//76 75//76
f 162//76 75//76 163//76
f 56//13 61//13 173//13
f 56//77 173//77 190//77
f 56//77 190//77 57//77
f 57//28 190//28 192//28
f 57//28 192//28 41//28
f 41//78 192//78 176//78
f 41//78 176//78 59//78
f 59//79 176//79 193//79
f 59//79 193//79 64//79
f 50//72 104//72 162//72
