# Blender 3.5.1
# www.blender.org
mtllib toast.mtl
o toast.001
v 0.044074 -0.004226 -0.009255
v 0.043373 -0.004226 0.001317
v -0.001755 -0.004226 0.001317
v 0.045296 -0.004226 -0.023911
v 0.048840 -0.004226 -0.041599
v 0.045690 -0.004226 -0.046484
v 0.039534 -0.004226 -0.048625
v 0.029299 -0.004226 -0.043894
v 0.013583 -0.004226 -0.041141
v -0.001755 -0.004226 -0.040879
v -0.016696 -0.004226 -0.041349
v -0.030846 -0.004226 -0.043880
v -0.040741 -0.004226 -0.045950
v -0.048430 -0.004226 -0.044836
v -0.051899 -0.004226 -0.039920
v -0.050581 -0.004226 -0.029168
v -0.049945 -0.004226 -0.014563
v -0.049869 -0.004226 0.000578
v -0.050589 -0.004226 0.011071
v -0.050512 -0.004226 0.029135
v -0.051788 -0.004226 0.045575
v -0.049396 -0.004226 0.048954
v -0.044178 -0.004226 0.050084
v -0.027837 -0.004226 0.048964
v -0.011733 -0.004226 0.048897
v -0.001755 -0.004226 0.048590
v 0.008493 -0.004226 0.049018
v 0.023554 -0.004226 0.048422
v 0.039273 -0.004226 0.049092
v 0.044305 -0.004226 0.048287
v 0.046130 -0.004226 0.041343
v 0.044869 -0.004226 0.027229
v 0.043930 -0.004226 0.011974
v -0.001755 0.003774 0.001317
v 0.043373 0.003774 0.001317
v 0.044074 0.003774 -0.009255
v 0.045296 0.003774 -0.023910
v 0.048840 0.003774 -0.041599
v 0.045690 0.003774 -0.046484
v 0.039534 0.003774 -0.048625
v 0.029299 0.003774 -0.043894
v 0.013583 0.003774 -0.041141
v -0.001755 0.003774 -0.040879
v -0.016696 0.003774 -0.041349
v -0.030846 0.003774 -0.043880
v -0.040741 0.003774 -0.045950
v -0.048430 0.003774 -0.044836
v -0.051899 0.003774 -0.039920
v -0.050581 0.003774 -0.029168
v -0.049945 0.003774 -0.014563
v -0.049869 0.003774 0.000578
v -0.050589 0.003774 0.011071
v -0.050512 0.003774 0.029135
v -0.051788 0.003774 0.045575
v -0.049396 0.003774 0.048954
v -0.044178 0.003774 0.050084
v -0.027837 0.003774 0.048964
v -0.011733 0.003774 0.048897
v -0.001755 0.003774 0.048590
v 0.008493 0.003774 0.049018
v 0.023554 0.003774 0.048422
v 0.039273 0.003774 0.049092
v 0.044305 0.003774 0.048287
v 0.046130 0.003774 0.041343
v 0.044869 0.003774 0.027229
v 0.043930 0.003774 0.011974
v 0.043373 0.003774 0.001317
v 0.043373 -0.004226 0.001317
v 0.044074 -0.004226 -0.009255
v 0.044074 0.003774 -0.009255
v 0.045296 -0.004226 -0.023911
v 0.045296 0.003774 -0.023910
v 0.048840 -0.004226 -0.041599
v 0.048840 0.003774 -0.041599
v 0.045690 -0.004226 -0.046484
v 0.045690 0.003774 -0.046484
v 0.039534 -0.004226 -0.048625
v 0.039534 0.003774 -0.048625
v 0.029299 -0.004226 -0.043894
v 0.029299 0.003774 -0.043894
v 0.013583 -0.004226 -0.041141
v 0.013583 0.003774 -0.041141
v -0.001755 -0.004226 -0.040879
v -0.001755 0.003774 -0.040879
v -0.016696 -0.004226 -0.041349
v -0.016696 0.003774 -0.041349
v -0.030846 -0.004226 -0.043880
v -0.030846 0.003774 -0.043880
v -0.040741 -0.004226 -0.045950
v -0.040741 0.003774 -0.045950
v -0.048430 -0.004226 -0.044836
v -0.048430 0.003774 -0.044836
v -0.051899 -0.004226 -0.039920
v -0.051899 0.003774 -0.039920
v -0.050581 -0.004226 -0.029168
v -0.050581 0.003774 -0.029168
v -0.049945 -0.004226 -0.014563
v -0.049945 0.003774 -0.014563
v -0.049869 -0.004226 0.000578
v -0.049869 0.003774 0.000578
v -0.050589 -0.004226 0.011071
v -0.050589 0.003774 0.011071
v -0.050512 -0.004226 0.029135
v -0.050512 0.003774 0.029135
v -0.051788 -0.004226 0.045575
v -0.051788 0.003774 0.045575
v -0.049396 -0.004226 0.048954
v -0.049396 0.003774 0.048954
v -0.044178 -0.004226 0.050084
v -0.044178 0.003774 0.050084
v -0.027837 -0.004226 0.048964
v -0.027837 0.003774 0.048964
v -0.011733 -0.004226 0.048897
v -0.011733 0.003774 0.048897
v -0.001755 -0.004226 0.048590
v -0.001755 0.003774 0.048590
v 0.008493 -0.004226 0.049018
v 0.008493 0.003774 0.049018
v 0.023554 -0.004226 0.048422
v 0.023554 0.003774 0.048422
v 0.039273 -0.004226 0.049092
v 0.039273 0.003774 0.049092
v 0.044305 -0.004226 0.048287
v 0.044305 0.003774 0.048287
v 0.046130 -0.004226 0.041343
v 0.046130 0.003774 0.041343
v 0.044869 -0.004226 0.027229
v 0.044869 0.003774 0.027229
v 0.043930 -0.004226 0.011974
v 0.043930 0.003774 0.011974
vn -0.0000 -1.0000 -0.0000
vn -0.0000 1.0000 -0.0000
vn 1.0000 -0.0000 0.0070
vn 0.9972 -0.0000 0.0746
vn 0.9902 -0.0000 0.1400
vn 0.9825 -0.0000 -0.1864
vn 0.6181 -0.0000 -0.7861
vn -0.0491 -0.0000 -0.9988
vn -0.2986 -0.0000 -0.9544
vn -0.0951 -0.0000 -0.9955
vn 0.0072 -0.0000 -1.0000
vn 0.1040 -0.0000 -0.9946
vn 0.1904 -0.0000 -0.9817
vn 0.0312 -0.0000 -0.9995
vn -0.5227 -0.0000 -0.8525
vn -0.9698 -0.0000 -0.2438
vn -0.9966 -0.0000 0.0827
vn -0.9997 -0.0000 0.0243
vn -0.9995 -0.0000 -0.0318
vn -0.9995 -0.0000 -0.0321
vn -0.9993 -0.0000 -0.0366
vn -0.9640 -0.0000 0.2661
vn -0.5514 -0.0000 0.8343
vn -0.0724 -0.0000 0.9974
vn 0.0363 -0.0000 0.9993
vn 0.0175 -0.0000 0.9998
vn -0.0055 -0.0000 1.0000
vn -0.0011 -0.0000 1.0000
vn -0.0015 -0.0000 1.0000
vn 0.0580 -0.0000 0.9983
vn 0.6715 -0.0000 0.7410
vn 0.9965 -0.0000 0.0838
vn 0.9972 -0.0000 -0.0752
vn 0.9984 -0.0000 -0.0568
vt 0.954930 0.607100
vt 0.947980 0.500000
vt 0.500000 0.500000
vt 0.967060 0.755570
vt 1.002240 0.934770
vt 0.970970 0.984260
vt 0.909860 1.005950
vt 0.808270 0.958020
vt 0.652250 0.930130
vt 0.500000 0.927480
vt 0.351690 0.932240
vt 0.211230 0.957880
vt 0.113000 0.978850
vt 0.036680 0.967570
vt 0.002240 0.917760
vt 0.015330 0.808830
vt 0.021640 0.660880
vt 0.022400 0.507480
vt 0.015240 0.401180
vt 0.016010 0.218170
vt 0.003350 0.051620
vt 0.027090 0.017400
vt 0.078890 0.005950
vt 0.241090 0.017290
vt 0.400950 0.017970
vt 0.500000 0.021080
vt 0.601740 0.016740
vt 0.751240 0.022780
vt 0.907280 0.015990
vt 0.957230 0.024150
vt 0.975340 0.094490
vt 0.962820 0.237490
vt 0.953500 0.392030
vt 0.497912 0.515404
vt 0.926441 0.513181
vt 0.933370 0.615236
vt 0.945351 0.756710
vt 0.979463 0.927359
vt 0.949677 0.974685
vt 0.891280 0.995665
vt 0.793970 0.950480
vt 0.644659 0.924667
vt 0.499009 0.922900
vt 0.357152 0.928174
vt 0.222853 0.953311
vt 0.128945 0.973784
vt 0.055905 0.963410
vt 0.022836 0.916107
vt 0.035076 0.812206
vt 0.040735 0.671133
vt 0.041062 0.524908
vt 0.033950 0.423609
vt 0.034210 0.249156
vt 0.021671 0.090456
vt 0.044295 0.057713
vt 0.093817 0.046542
vt 0.249007 0.056546
vt 0.401928 0.056404
vt 0.496684 0.058875
vt 0.593991 0.054238
vt 0.737015 0.059252
vt 0.886265 0.052004
vt 0.934067 0.059529
vt 0.951577 0.126499
vt 0.939965 0.262872
vt 0.931446 0.410231
vt 0.500000 0.500000
vt 0.500000 0.500000
vt 0.500000 0.500000
vt 0.500000 0.500000
vt 0.500000 0.500000
vt 0.500000 0.500000
vt 0.500000 0.500000
vt 0.500000 0.500000
vt 0.500000 0.500000
vt 0.500000 0.500000
vt 0.500000 0.500000
vt 0.500000 0.500000
vt 0.500000 0.500000
vt 0.500000 0.500000
vt 0.500000 0.500000
vt 0.500000 0.500000
vt 0.500000 0.500000
vt 0.500000 0.500000
vt 0.500000 0.500000
vt 0.500000 0.500000
vt 0.496967 0.521456
vt 0.500000 0.500000
vt 0.496967 0.521456
vt 0.496967 0.521456
vt 0.500000 0.500000
vt 0.500000 0.500000
vt 0.500000 0.500000
vt 0.500000 0.500000
vt 0.500000 0.500000
vt 0.500000 0.500000
vt 0.500000 0.500000
vt 0.500000 0.500000
vt 0.500000 0.500000
vt 0.500000 0.500000
vt 0.500000 0.500000
vt 0.500000 0.500000
vt 0.500000 0.500000
vt 0.500000 0.500000
vt 0.500000 0.500000
vt 0.500000 0.500000
vt 0.500000 0.500000
vt 0.500000 0.500000
vt 0.500000 0.500000
vt 0.500000 0.500000
vt 0.500000 0.500000
vt 0.500000 0.500000
vt 0.500000 0.500000
vt 0.500000 0.500000
vt 0.500000 0.500000
vt 0.500000 0.500000
vt 0.500000 0.500000
vt 0.500000 0.500000
vt 0.500000 0.500000
vt 0.500000 0.500000
vt 0.500000 0.500000
vt 0.500000 0.500000
vt 0.500000 0.500000
vt 0.500000 0.500000
vt 0.500000 0.500000
vt 0.500000 0.500000
vt 0.500000 0.500000
vt 0.500000 0.500000
vt 0.500000 0.500000
vt 0.500000 0.500000
vt 0.500000 0.500000
vt 0.500000 0.500000
vt 0.500000 0.500000
s 1
usemtl toast.001
f 1/1/1 2/2/1 3/3/1
f 4/4/1 1/1/1 3/3/1
f 5/5/1 4/4/1 3/3/1
f 6/6/1 5/5/1 3/3/1
f 7/7/1 6/6/1 3/3/1
f 8/8/1 7/7/1 3/3/1
f 9/9/1 8/8/1 3/3/1
f 10/10/1 9/9/1 3/3/1
f 11/11/1 10/10/1 3/3/1
f 12/12/1 11/11/1 3/3/1
f 13/13/1 12/12/1 3/3/1
f 14/14/1 13/13/1 3/3/1
f 15/15/1 14/14/1 3/3/1
f 16/16/1 15/15/1 3/3/1
f 17/17/1 16/16/1 3/3/1
f 18/18/1 17/17/1 3/3/1
f 19/19/1 18/18/1 3/3/1
f 20/20/1 19/19/1 3/3/1
f 21/21/1 20/20/1 3/3/1
f 22/22/1 21/21/1 3/3/1
f 23/23/1 22/22/1 3/3/1
f 24/24/1 23/23/1 3/3/1
f 25/25/1 24/24/1 3/3/1
f 26/26/1 25/25/1 3/3/1
f 27/27/1 26/26/1 3/3/1
f 28/28/1 27/27/1 3/3/1
f 29/29/1 28/28/1 3/3/1
f 30/30/1 29/29/1 3/3/1
f 31/31/1 30/30/1 3/3/1
f 32/32/1 31/31/1 3/3/1
f 33/33/1 32/32/1 3/3/1
f 2/2/1 33/33/1 3/3/1
f 34/34/2 35/35/2 36/36/2
f 34/34/2 36/36/2 37/37/2
f 34/34/2 37/37/2 38/38/2
f 34/34/2 38/38/2 39/39/2
f 34/34/2 39/39/2 40/40/2
f 34/34/2 40/40/2 41/41/2
f 34/34/2 41/41/2 42/42/2
f 34/34/2 42/42/2 43/43/2
f 34/34/2 43/43/2 44/44/2
f 34/34/2 44/44/2 45/45/2
f 34/34/2 45/45/2 46/46/2
f 34/34/2 46/46/2 47/47/2
f 34/34/2 47/47/2 48/48/2
f 34/34/2 48/48/2 49/49/2
f 34/34/2 49/49/2 50/50/2
f 34/34/2 50/50/2 51/51/2
f 34/34/2 51/51/2 52/52/2
f 34/34/2 52/52/2 53/53/2
f 34/34/2 53/53/2 54/54/2
f 34/34/2 54/54/2 55/55/2
f 34/34/2 55/55/2 56/56/2
f 34/34/2 56/56/2 57/57/2
f 34/34/2 57/57/2 58/58/2
f 34/34/2 58/58/2 59/59/2
f 34/34/2 59/59/2 60/60/2
f 34/34/2 60/60/2 61/61/2
f 34/34/2 61/61/2 62/62/2
f 34/34/2 62/62/2 63/63/2
f 34/34/2 63/63/2 64/64/2
f 34/34/2 64/64/2 65/65/2
f 34/34/2 65/65/2 66/66/2
f 34/34/2 66/66/2 35/35/2
usemtl marron.001
f 67/67/3 68/68/3 69/69/4
f 70/70/4 69/69/4 71/71/5
f 72/72/5 71/71/5 73/73/6
f 74/74/6 73/73/6 75/75/7
f 76/76/7 75/75/7 77/77/8
f 78/78/8 77/77/8 79/79/9
f 80/80/9 79/79/9 81/81/10
f 82/82/10 81/81/10 83/83/11
f 84/84/11 83/83/11 85/85/12
f 86/86/12 85/85/12 87/88/13
f 88/91/13 87/88/13 89/92/14
f 90/93/14 89/92/14 91/94/15
f 92/95/15 91/94/15 93/96/16
f 94/97/16 93/96/16 95/98/17
f 96/99/17 95/98/17 97/100/18
f 98/101/18 97/100/18 99/102/19
f 100/103/19 99/102/19 101/104/20
f 102/105/20 101/104/20 103/106/21
f 104/107/21 103/106/21 105/108/22
f 106/109/22 105/108/22 107/110/23
f 108/111/23 107/110/23 109/112/24
f 110/113/24 109/112/24 111/114/25
f 112/115/25 111/114/25 113/116/26
f 114/117/26 113/116/26 115/118/27
f 116/119/27 115/118/27 117/120/28
f 118/121/28 117/120/28 119/122/29
f 120/123/29 119/122/29 121/124/30
f 122/125/30 121/124/30 123/126/31
f 124/127/31 123/126/31 125/128/32
f 126/129/32 125/128/32 127/130/33
f 128/131/33 127/130/33 129/132/34
f 130/133/34 129/132/34 68/68/3
f 67/67/3 69/69/4 70/70/4
f 70/70/4 71/71/5 72/72/5
f 72/72/5 73/73/6 74/74/6
f 74/74/6 75/75/7 76/76/7
f 76/76/7 77/77/8 78/78/8
f 78/78/8 79/79/9 80/80/9
f 80/80/9 81/81/10 82/82/10
f 82/82/10 83/83/11 84/84/11
f 84/84/11 85/85/12 86/86/12
f 86/87/12 87/89/13 88/90/13
f 88/91/13 89/92/14 90/93/14
f 90/93/14 91/94/15 92/95/15
f 92/95/15 93/96/16 94/97/16
f 94/97/16 95/98/17 96/99/17
f 96/99/17 97/100/18 98/101/18
f 98/101/18 99/102/19 100/103/19
f 100/103/19 101/104/20 102/105/20
f 102/105/20 103/106/21 104/107/21
f 104/107/21 105/108/22 106/109/22
f 106/109/22 107/110/23 108/111/23
f 108/111/23 109/112/24 110/113/24
f 110/113/24 111/114/25 112/115/25
f 112/115/25 113/116/26 114/117/26
f 114/117/26 115/118/27 116/119/27
f 116/119/27 117/120/28 118/121/28
f 118/121/28 119/122/29 120/123/29
f 120/123/29 121/124/30 122/125/30
f 122/125/30 123/126/31 124/127/31
f 124/127/31 125/128/32 126/129/32
f 126/129/32 127/130/33 128/131/33
f 128/131/33 129/132/34 130/133/34
f 130/133/34 68/68/3 67/67/3
